<svg id="e6b33072-64fc-4626-9122-d70beb997c82" data-name="Layer 1" xmlns="http://www.w3.org/2000/svg" width="350" height="400" viewBox="0 0 350 400"><defs><style>.b5272e93-57bc-4c26-99b3-0736958fd090{fill:#f27292;}.bdc662c6-d332-436a-ade0-72477fb3f675{fill:#00ac63;}.ad5b80e3-f582-43c1-b0fd-10d8f7ae95af{fill:#fff;}.bf1a7585-5d7e-480c-a662-3b2b0915b8dc{fill:#f7adc3;}.b18c8a06-24b7-41c1-a0f7-805c3dcba72e{fill:#be6ca1;}.a0205802-7c9f-4387-b9eb-f7326179d6bc{fill:#64367d;}.b82027de-86dd-4cb2-9559-04a702318b04{fill:#2a3f4c;}.aff17569-8a8c-4ac2-ba98-ad618e000e29{fill:#98cf94;}.a6e19c02-f853-4ffd-848f-12197c0bd955{fill:#231f20;}.b234cde7-2e45-480b-a31e-cfa6213792fd{fill:#bd4650;}.f047a125-be32-4f59-9a63-0b8205dca673{fill:#973c4c;}.f84c6530-2de4-4b4d-bc3c-37df7b5b5b33{fill:#58595b;}.ee5db25d-2969-4710-9811-d797bf733ee5{fill:#7c2f56;}.e46561e5-1420-47ae-801f-727df9a3f0d3{fill:#00502b;}.a2ad7e26-4b4c-42c4-81b9-6e693f507ba6{fill:#7b2f67;}.b6bbdd49-9b06-4b3d-8193-3042bf3e1822{fill:#00703b;}.b1e6f5a3-b651-4449-8212-ae1fc163cb2e{fill:#2962ae;}.b45b0682-39be-427d-885d-3d8a5edf0ed3{fill:#f04e47;}</style></defs><title>pers_artboard</title><path class="b5272e93-57bc-4c26-99b3-0736958fd090" d="M200.71543,84.73376s-3.58609,17.10229-9.93064,23.17106c-6.34454,6.06812-15.72314,19.30789-19.86,25.10174-4.13821,5.79242-16.55152,30.61768-10.48276,52.68536,6.06884,22.0669,29.515,39.7213,52.68609,38.61778s36.41081-17.37727,39.16989-26.48088c2.75836-9.10283,10.2057-29.79059,1.37921-49.0999-8.82791-19.30854-25.37736-34.20457-29.51566-38.89348-4.13751-4.68963-14.34321-22.06761-14.34321-25.65379C209.81834,84.18165,204.0252,81.97533,200.71543,84.73376Z"/><path class="bdc662c6-d332-436a-ade0-72477fb3f675" d="M202.83073,65.33278s-4.41392-19.30925-12.689-16.55017c-8.27508,2.75836-8.64316,13.23977-4.782,20.96345,0,0-5.88345,7.35632-5.70012,13.97656s7.17093,13.79181,16.91832,5.51673c0,0,3.67713-3.31048,4.1375-4.50559,0,0,5.79243,2.29862,9.10291.09231l.91947.73544,3.12644-1.65556s4.22917,10.29872,13.79181,10.29872,8.091-8.8272-.36807-20.04469c0,0,8.091-9.7466,4.04591-16.36684-4.04591-6.62024-12.321-6.06813-20.04468,8.64316C211.28922,66.4363,208.16278,63.862,202.83073,65.33278Z"/><path class="ad5b80e3-f582-43c1-b0fd-10d8f7ae95af" d="M217.26568,193.967s4-14.20574-11.86126-19.0329C205.40442,174.9341,201.12938,190.65653,217.26568,193.967Z"/><path class="ad5b80e3-f582-43c1-b0fd-10d8f7ae95af" d="M239.33329,193.00174s-2.06879-13.10231,10.89528-15.72314C250.22857,177.2786,251.19384,190.519,239.33329,193.00174Z"/><path class="bf1a7585-5d7e-480c-a662-3b2b0915b8dc" d="M160.442,161.418s3.67856-22.035,22.34339-44.6867c17.65368-21.42383,17.746-28.59547,18.02169-31.35383,0,0,6.25287,1.19518,9.01124-.64371,0,0,2.61948,9.51606,6.9876,14.61956,4.9917,5.832,20.96409,27.58369,26.11352,31.44628,5.14865,3.86109,11.95222,18.205,12.32029,23.90577,0,0-9.93071-11.95292-12.68907-13.97655-2.75837-2.02222-4.78065-6.06813-5.332-7.53893,0,0-1.28756,2.39028-2.75843,3.12643,0,0-2.75837,6.06813-12.689,8.82649s-21.33153,4.41321-24.82533,5.3334c-3.49444.91941-10.48205,4.59725-12.50568,6.61953,0,0,4.59725-12.137,14.34393-17.837a207.92035,207.92035,0,0,0-22.06761,14.89462c-4.96532,3.86252-7.17164,4.22988-7.17164,4.22988s3.4938-10.298,5.14936-11.95293C174.69429,146.43029,163.84416,155.8089,160.442,161.418Z"/><path class="b18c8a06-24b7-41c1-a0f7-805c3dcba72e" d="M163.2011,244.99746s-22.61972-11.58485-31.99833-3.03336c0,0-25.101-1.37985-29.51488,15.72172-4.41327,17.10229-2.75836,19.03355-6.34454,23.72317,0,0-6.06812,3.31047.55141,12.68837,6.62088,9.3786,10.75846,16.00019,11.5862,19.86135.8271,3.86117,6.89594,27.308,35.58379,36.96294,28.6865,9.6543,46.89223,2.482,56.54724-2.48337,9.65423-4.96461,12.96471-9.9293,13.51612-10.757,0,0,.27569-9.655-.82782-12.41338,0,0,5.51679-2.20624,8.27579-11.03345,2.75837-8.82719,5.2411-17.378,1.93062-23.17112,0,0,1.65485-16.27518-9.1029-22.0669Z"/><path class="bf1a7585-5d7e-480c-a662-3b2b0915b8dc" d="M138.28276,255.29618s-5.70006,2.9424-7.907,3.35634c-2.207.41316-6.621,7.723-6.34453,12.27442,0,0,.96527-.5514,3.03406-3.44794,2.06879-2.89589,2.207-2.6209,3.17223-2.75835,0,0-4.41321,8.8272-.68957,11.30986a1.86276,1.86276,0,0,0,1.93055-1.5181s.27641,4.69033,1.93133,3.17223c1.65484-1.51667,2.75836-6.62017,3.5861-7.72226a11.83747,11.83747,0,0,1,2.75772-2.62161s-2.20632,8.27515,3.173,8.27515c0,0-.41459-3.58546.2757-5.10285.68957-1.51668,3.5167-5.03409.8958-10.13694l.41394-.69029s2.34513-6.41259-5.99872-4.55073"/><path class="bf1a7585-5d7e-480c-a662-3b2b0915b8dc" d="M215.42672,254.74413a7.17967,7.17967,0,0,0,1.93062.46038s.27571-1.74793,2.575-4.2306c2.29862-2.48265,3.03407-6.71189,1.93055-8.91815,0,0,.5514-1.37985,2.29862-.09166,1.74729,1.28685,3.31047,3.86046,1.65563,7.90638,0,0,3.5861-2.66606,6.43613-3.21811,2.85-.5514,5.60846-.918,6.06884.093.459,1.01114-4.598,3.95283-6.25288,4.873-1.65556.91876-1.74722,1.47152-1.93126,1.74651l.18475,1.28755s6.25145,1.28748,9.01053.82774c2.75836-.46038,2.20625.2757,1.3785,1.65492-.82709,1.37851-5.60846,3.77014-10.29808,2.29862l-.36735,1.19518s3.49308,2.391,5.60838,2.85074c2.11529.459,3.03477,1.10344,2.207,1.65485a7.87407,7.87407,0,0,1-8.27516-.82782s-5.7014,2.8501-7.99939,1.65563c-2.29791-1.1966-2.391-1.56325-2.391-1.56325l-.91948.2757S212.117,263.3873,215.42672,254.74413Z"/><path class="bf1a7585-5d7e-480c-a662-3b2b0915b8dc" d="M179.3374,355.7488s3.58618,13.51547,7.17235,18.7572c0,0,17.239-5.24173,18.619-4,0,0-1.93126-19.86-3.99934-22.61909C201.12938,347.88687,188.85417,355.7488,179.3374,355.7488Z"/><path class="a0205802-7c9f-4387-b9eb-f7326179d6bc" d="M163.2011,244.99746s-1.15692,7.18479,5.057,14.712c6.52787,7.90843,14.11339,12.321,22.251,7.21815,7.24937-4.54591,14.52725-14.02243,18.02176-28.9184,0,0-19.12528-15.26269-34.388-14.34328,0,0,1.65421,6.0682-.18467,9.56193C172.11926,236.72308,170.64844,240.76893,163.2011,244.99746Z"/><path class="b82027de-86dd-4cb2-9559-04a702318b04" d="M153.36212,378.68938s-6.25288,3.67777,1.28748,6.80356c0,0-2.02292,2.207-3.30977,2.391-1.28748.184-14.71263,3.30977-12.13759,7.17228,2.575,3.86117,20.59608,5.33269,33.10176,1.47017,0,0,4.22924,1.47152,4.04591-4.0452-.18474-5.516-2.0237-5.516-2.0237-5.516s6.98832-6.80428-.73537-8.2758C173.59084,378.68938,159.61493,375.747,153.36212,378.68938Z"/><path class="b82027de-86dd-4cb2-9559-04a702318b04" d="M202.09465,376.66638s-16.20023,4.59938-15.63077,7.72305c.36808,2.02363,3.49381,1.47152,4.22925,1.47152s-2.39036,6.80428-.184,7.90708c2.20625,1.10345,4.41321.55275,5.33269,1.28819.92018.73544,7.90843,4.22925,19.67732,4.59725,11.76889.36737,11.58556-2.9424,11.03345-3.86181-.55141-.92018-4.96533-2.94311-5.70077-3.49451s-8.09176-6.80421-9.37924-8.64316c0,0-1.19447-1.56183-2.38964-1.47017,0,0-1.10345-1.28819.91947-2.85138C212.02458,377.77061,212.11625,376.39,202.09465,376.66638Z"/><path class="ad5b80e3-f582-43c1-b0fd-10d8f7ae95af" d="M176.71657,212.63247s-5.88409,9.3779,1.83888,14.34322c7.72369,4.9654,20.78084,5.70076,20.78084,15.99955,0,0,3.86252-3.49451,6.4362-4.23,2.57433-.73608,7.35562-.9194,11.21749-3.67777s5.51743-9.3786,3.67777-10.8502c0,0-13.42445,2.207-23.35509-2.0222C187.38194,217.96516,178.73949,214.65476,176.71657,212.63247Z"/><path class="ad5b80e3-f582-43c1-b0fd-10d8f7ae95af" d="M134.05351,257.31846a4.12806,4.12806,0,0,1,1.839-4.59732s3.86116-15.0793,14.528-21.14813c10.66537-6.06884,18.20438-8.45912,23.72245-7.90708,0,0,6.80428,12.321-14.34456,22.25172,0,0-1.65492,5.88479-4.59731,2.39028a23.94884,23.94884,0,0,0-6.06814,8.45913s-.82774,2.16116-1.24168,2.16116c0,0,.13824,2.48266-2.89582,3.8611a7.56663,7.56663,0,0,0-.89729-2.41319s.89729-.62017.34517-1.17221c-.5514-.5514-5.51672-4.96539-8.689-2.75836Z"/><path class="ad5b80e3-f582-43c1-b0fd-10d8f7ae95af" d="M207.335,242.92938s-5.24031,15.171-11.03345,18.34262c0,0,8.689.96662,12.689,9.10354,0,0,5.10285-.2757,7.03347-2.48267,0,0,4.27576.96528,5.51808-1.37914,1.24033-2.3452.04515-.5514.04515-.5514s-1.97712-.64378-2.391-1.56325l-.91948.2757s-4.04513-2.85074-2.25276-10.02231l1.33335.552s1.65485-4.04655,2.575-4.2306c0,0-4.87373-2.94168-7.21815,2.85075a2.27162,2.27162,0,0,0-3.448-.27571s.13824-2.62083-.5514-3.72363C208.02525,248.7218,207.4732,244.17035,207.335,242.92938Z"/><path class="ad5b80e3-f582-43c1-b0fd-10d8f7ae95af" d="M146.92591,352.98973s2.482,22.75725,8.5515,29.23925c0,0,6.34383,5.51672,17.10158-.13682,0,0,2.6209-14.896-3.03406-25.10239C169.54493,356.98977,149.68428,354.78282,146.92591,352.98973Z"/><path class="ad5b80e3-f582-43c1-b0fd-10d8f7ae95af" d="M193.81956,366.78161s-11.85159,4.42643-9.655,7.17228c1.10352,1.37986,1.93126.82781,2.48266,1.10344.5514.27642,3.30977,5.655,3.30977,5.655s8.27508-5.51672,16.68912-3.31048c0,0-1.51738-5.37855-1.65563-6.34453-.13746-.96528.13825-.55133.13825-.55133s4.33406-3.073-2.20633-4.13687C196.99109,365.40239,193.81956,366.78161,193.81956,366.78161Z"/><path class="aff17569-8a8c-4ac2-ba98-ad618e000e29" d="M165.68312,310.83228s-8.82656,3.67784-13.60785-3.67784-15.06684-26.53152,5.14936-44.50187c6.61953-5.8848,22.61973.5514,26.29614,7.35561a11.57074,11.57074,0,0,1,8.64317-7.72369c6.80427-1.28755,14.34392.18333,19.3086,12.321,4.96532,12.13626,5.8848,41.74422-10.66544,36.04346,0,0,6.06813,14.71129-.5514,25.56141-6.62017,10.84948-20.04469,10.84877-25.37809,6.61953C169.54493,338.60136,157.408,330.877,165.68312,310.83228Z"/><path class="a6e19c02-f853-4ffd-848f-12197c0bd955" d="M205.40442,175.76121s6.34446.55211,8.414,4.13822c2.06808,3.58617,1.65421,11.86062-1.932,12.27449C208.301,192.58779,202.78422,181.27864,205.40442,175.76121Z"/><path class="a6e19c02-f853-4ffd-848f-12197c0bd955" d="M245.40212,179.07168s3.44723,8.68967-2.89731,12.41331c-4.41527,2.59175-3.44722.27506-3.44722.27506A13.35788,13.35788,0,0,1,245.40212,179.07168Z"/><path class="b234cde7-2e45-480b-a31e-cfa6213792fd" d="M233.67832,197.82882s-4.41392-1.65485-6.89587,0c-2.48265,1.65491-5.10285,6.75777,2.89582,6.34454C237.67837,203.76019,234.50614,198.10523,233.67832,197.82882Z"/><path class="b234cde7-2e45-480b-a31e-cfa6213792fd" d="M224.622,210.51789s-5.88409,3.12573-4.966,6.06813C220.57608,219.52842,224.3463,213.736,224.622,210.51789Z"/><path class="f047a125-be32-4f59-9a63-0b8205dca673" d="M203.74879,65.14875s-.41245-17.23975,5.65567-25.65308c0,0-2.75836,17.79193-1.37921,25.65308C208.02525,65.14875,204.853,64.046,203.74879,65.14875Z"/><path class="f84c6530-2de4-4b4d-bc3c-37df7b5b5b33" d="M220.3358,224.84582a8.67791,8.67791,0,0,1-.24235,5.04937c-1.84586,4.92365-7.71117,6.45285-9.51678,6.89666a24.20671,24.20671,0,0,0-10.505,4.98751c-.64371-7.26324-9.848-10.55494-11.673-11.20917-4.36116-1.56318-10.30775-3.91948-12.096-8.05357a9.35255,9.35255,0,0,1,.41395-8.75844,8.38456,8.38456,0,0,1,.71112-1.03262c-.38266-.39723-.48477-.54443-.87852-.92986a9.10367,9.10367,0,0,0-.9625,1.30135c-1.72852,2.83965-2.37713,6.17444-.61668,10.47721,1.79863,4.39593,7.52855,6.50149,11.99808,8.10293a33.23784,33.23784,0,0,1,4.78477,1.975c4.28129,2.40906,7.30426,6.68346,7.03276,9.94316l-.04864.58127.47986-.33124c.07915-.05419,5.72786-4.64034,10.96959-5.65148,1.90559-.368,9.28623-2.29862,11.12511-8.09176a10.00122,10.00122,0,0,0,.17572-5.47434C221.106,224.718,220.72122,224.78822,220.3358,224.84582Z"/><path class="f84c6530-2de4-4b4d-bc3c-37df7b5b5b33" d="M198.36682,223.25974c-.6-.123-1.19653-.24306-1.78889-.37156,3.78337,3.3584,7.6306,7.83831,6.6292,11.55569,0,0,2.864-3.71325-3.74028-10.92443C199.10155,223.42571,198.73625,223.33611,198.36682,223.25974Z"/><path class="ee5db25d-2969-4710-9811-d797bf733ee5" d="M171.91651,261.01713c-.59172-.41252-1.16112-.84722-1.70626-1.29729-5.16678-4.27433-7.7911-11.0348-6.36609-15.64115l-1.01114.91948c-1.38405,4.4723.66462,10.84528,5.22788,15.27243C169.37205,260.48237,170.65953,260.70808,171.91651,261.01713Z"/><path class="ee5db25d-2969-4710-9811-d797bf733ee5" d="M196.389,262.03724c9.44389-8.3605,12.38557-23.39748,12.41821-23.56829l-1.19581.36872c-.03407.17984-3.16533,15.93078-13.71686,23.26072A16.57906,16.57906,0,0,1,196.389,262.03724Z"/><path class="f84c6530-2de4-4b4d-bc3c-37df7b5b5b33" d="M144.87448,261.18588a2.87507,2.87507,0,0,0-.68332-1.64382,9.597,9.597,0,0,0-6.12231-3.23609c-1.93823-.21462-2.56458.15481-2.76533.39652a.55354.55354,0,0,0-.11385.48747l-.52431.17088a1.09888,1.09888,0,0,1,.20345-.99862c.47638-.58825,1.57364-.791,3.26119-.60417,2.78888.309,5.53543,1.866,6.50142,3.45142A2.72335,2.72335,0,0,1,144.87448,261.18588Z"/><path class="e46561e5-1420-47ae-801f-727df9a3f0d3" d="M200.7613,78.20519l.92012-.73544c1.74658,2.68959.15624,6.00284.091,6.11463A7.04273,7.04273,0,0,0,200.7613,78.20519Z"/><path class="a2ad7e26-4b4c-42c4-81b9-6e693f507ba6" d="M198.71541,107.49094A79.64425,79.64425,0,0,0,202.64605,85.699l1.31038.34511C201.88907,104.97493,198.71541,107.49094,198.71541,107.49094Z"/><path class="a2ad7e26-4b4c-42c4-81b9-6e693f507ba6" d="M207.5419,85.49209l1.0292-.26388c.03193.15,3.22571,15.0571,8.91261,22.369C217.48371,107.59719,211.542,101.90474,207.5419,85.49209Z"/><path class="a2ad7e26-4b4c-42c4-81b9-6e693f507ba6" d="M234.04227,136.52738a7.28118,7.28118,0,0,0,1.15415-10.14177s5.88338,5.51743-.64441,10.75775Z"/><path class="ee5db25d-2969-4710-9811-d797bf733ee5" d="M245.31046,133.00656c-4.39387-5.66122-9.01821-10.80013-13.49044-15.77107-10.25015-11.39036-18.326-20.096-20.99054-32.08785l-1.19589.13745c2.69656,12.1342,10.43831,21.45235,20.74059,32.90045,4.46533,4.96326,9.08341,10.09527,13.464,15.74043a63.01529,63.01529,0,0,1,9.239,16.60926,49.65629,49.65629,0,0,0-8.7258-9.41544,28.92014,28.92014,0,0,1-7.2244-9.12508l-.45967.91947a32.08138,32.08138,0,0,0,7.53965,10.48205,50.01876,50.01876,0,0,1,10.68,12.79183,62.10588,62.10588,0,0,1-2.03757,38.60669c-8.82649,22.98709-30.3427,31.17051-44.27275,29.24-10.53068-1.46042-37.36849-7.12719-46.57137-36.96364a52.50185,52.50185,0,0,1-1.44727-23.70169c2.76114-3.88684,8.10292-11.07306,12.021-14.27239a31.05778,31.05778,0,0,0-3.71666,9.639l-.11876.52225.49372-.20629a47.77283,47.77283,0,0,0,11.38489-7.2188,88.48934,88.48934,0,0,1,13.62235-9.77932c-3.66042,2.76328-8.72651,7.84871-10.264,15.59465,0,0,5.04035-5.21535,15.81552-6.71254,44.96438-6.24939,34.9851-21.23987,34.9851-21.23987,3.08064,14.25226-24.03365,17.93914-35.85878,19.85994-7.89727,1.28407-11.17162,3.21881-13.01058,5.241,4.55145-10.20563,14.83424-16.08766,14.9412-16.1363l-.03265.01117c5.566-2.48686,11.746-4.25769,17.8245-4.01122,0,0-15.35505-3.86109-37.23863,14.712a65.35583,65.35583,0,0,1-10.66609,7.53972,46.1752,46.1752,0,0,1,4.55209-10.92792l.873-1.30142c-5.14033,2.82222-11.44946,10.23693-14.81967,14.514,4.46257-20.11829,17.72665-37.39487,24.19891-43.66091,11.58493-11.21748,15.76481-29.976,15.81409-30.15872l-1.4014-.0229c-.05.18055-5.40281,19.21275-15.70921,29.24828-5.357,5.216-13.72446,15.971-19.678,29.1163-4.99938,11.03971-9.91535,27.5844-4.94313,43.7089,9.29668,30.14131,39.17409,38.03722,49.90275,38.53657q.49793.02293,1.02565.0229c18.02041.43819,35.86781-9.31681,43.76515-30.82469C262.96415,171.6237,257.92587,149.2602,245.31046,133.00656Z"/><path class="a6e19c02-f853-4ffd-848f-12197c0bd955" d="M217.42469,194.54131l-.19514-.02567c-.24512-.032-6.55773-.91742-10.07862-5.78965-2.43267-3.36538-3.05071-7.64732-2.02221-13.05645l.96043.00555c-.99862,5.25353-.12779,9.39944,2.2118,12.63766a12.99662,12.99662,0,0,0,8.61956,5.03409,12.74421,12.74421,0,0,0-1.03405-9.86124c-2.0264-4.10835-5.21669-6.65494-8.59451-7.307-3.00285-.57913-4.94314-1.68194-5.75147-3.28544a4.1286,4.1286,0,0,1,.36942-4.30348,5.53714,5.53714,0,0,0,.25559,3.36252c.73472,1.43753,2.5389,2.44235,5.35977,2.98685a13.44616,13.44616,0,0,1,9.189,7.44314c2.39028,4.68892,2.21947,9.14174.79859,11.98415l-.08818.175Z"/><path class="a6e19c02-f853-4ffd-848f-12197c0bd955" d="M238.78673,192.917a13.99094,13.99094,0,0,1,3.948-12.65011,11.55638,11.55638,0,0,1,6.25288-3.30976c2.9653-.64378,4.78128-2.11537,5.11046-6.22578,0,0,1.1417,6.04174-4.83476,7.32922a9.69358,9.69358,0,0,0-5.66606,2.91744c-4.47159,4.43753-4.40211,9.26532-3.98824,11.33347,1.67639-.4431,10.482-3.58546,10.20634-14.61827l.82711-.13888c.13888,13.93069-11.57931,15.87446-11.689,15.8953Z"/><path class="a6e19c02-f853-4ffd-848f-12197c0bd955" d="M208.36694,164.50411c1.29588-1.50416,4.00417-4.51461,8.4459-4.78057,2.02854-.01877,2.49169,2.52227.3035,2.30488a12.71555,12.71555,0,0,0-8.10633,3.42639C207.478,167.05831,206.98637,166.22431,208.36694,164.50411Z"/><path class="a6e19c02-f853-4ffd-848f-12197c0bd955" d="M247.93961,166.50556c-.86387-1.55835-2.69307-4.69588-6.51741-5.60007-1.76742-.31943-2.6209,1.9181-.67435,2.048a10.74279,10.74279,0,0,1,6.46258,4.31949C248.26324,168.95629,248.839,168.2729,247.93961,166.50556Z"/><path class="a2ad7e26-4b4c-42c4-81b9-6e693f507ba6" d="M228.62134,204.81642c-2.5653,0-4.51256-1.14931-4.84309-2.85906-.4042-2.10214,1.85553-4.31251,5.03687-4.92642a8.777,8.777,0,0,1,1.66316-.16186c2.56672,0,4.514,1.14932,4.84316,2.86049.40555,2.10143-1.85418,4.31116-5.03615,4.92507a8.83854,8.83854,0,0,1-1.66395.16178Zm1.88475-7.21744a8.18065,8.18065,0,0,0-1.5528.1514c-2.86667.55275-4.49172,2.19935-4.14725,3.98618.27079,1.40624,1.76528,2.08266,4.00908,2.08266a8.23946,8.23946,0,0,0,1.55344-.1514c2.86744-.55346,4.50565-2.11466,4.22924-3.7695-.23538-1.41321-1.84721-2.29934-4.09171-2.29934Z"/><path class="a2ad7e26-4b4c-42c4-81b9-6e693f507ba6" d="M218.92053,215.793a7.87416,7.87416,0,0,1,3.241-4.448,17.78606,17.78606,0,0,1,6.93065-2.27573c-.08818.034-7.06811,1.89656-8.9626,6.05007-.33472.73544.057,1.02707.13611,1.08751a1.49923,1.49923,0,0,0,.89587,0c1.31735-.55624,2.88473-3.00839,3.13825-5.20632l.759-.48264c-.29028,2.50556-2.04447,6.12161-4.13821,7.03411C219.57611,218.1374,218.7143,216.89714,218.92053,215.793Z"/><path class="f84c6530-2de4-4b4d-bc3c-37df7b5b5b33" d="M154.55794,381.81582c-5.86674-7.70015-8.20561-28.39551-8.289-29.20939l1.57641.33814c.02084.19727,2.207,20.78013,8.27509,29.33091Z"/><path class="f84c6530-2de4-4b4d-bc3c-37df7b5b5b33" d="M173.32552,381.67964l-1.20555.41252c2.16464-12.99251-3.073-24.90028-3.12716-25.01072l1.932-.18333a51.17377,51.17377,0,0,1,2.40074,24.78153Z"/><path class="ee5db25d-2969-4710-9811-d797bf733ee5" d="M185.35553,371.65107a.618.618,0,0,1,.19165-.13191c-4.82224-9.846-5.50833-15.37867-5.52021-15.44879l-1.7576.23054c.01245.07289.90135,6.61185,6.21739,16.5356A4.36265,4.36265,0,0,1,185.35553,371.65107Z"/><path class="ee5db25d-2969-4710-9811-d797bf733ee5" d="M203.77936,366.44966c.43059.17984.8653.34859,1.29723.5236-.275-1.7938-.49722-3.64243-.59094-5.38617-.34376-6.36679-1.45076-11.63071-2.75907-14.61962l-1.37851.9194c1.93965,4.43618,2.3174,10.09947,2.84939,14.61963C203.34743,363.77251,203.55159,365.11354,203.77936,366.44966Z"/><path class="a6e19c02-f853-4ffd-848f-12197c0bd955" d="M215.19689,395.102c-7.08-.3215-11.07932-2.25347-11.07932-2.25347.07083.025,9.50774,2.44725,17.60782.82846,0,0-1.37914,1.70071-6.5285,1.425Z"/><path class="b6bbdd49-9b06-4b3d-8193-3042bf3e1822" d="M211.54749,273.186c-2.7014-5.29316-8.18477-11.63769-14.74044-12.09743-4.48062-.3173-9.5876,2.08-13.43206,7.30149a20.27,20.27,0,0,0-3.5674-3.99379,20.03011,20.03011,0,0,0-17.02107-4.36464c-7.21887,1.32574-13.12308,6.59457-16.02238,14.91894-3.98825,11.45365-1.99939,25.90517,4.52777,32.90251a12.1561,12.1561,0,0,0,9.08419,4.148,11.1312,11.1312,0,0,0,4.26395-.75208c-1.51326,2.08749-4.90423,8.21955-1.80838,18.24186,3.66739,11.87932,13.69318,17.05436,21.885,16.87935,6.43621-.13746,14.94881-3.01806,17.83773-15.40086,2.00415-8.59111.62358-15.587-.96534-19.07109a7.522,7.522,0,0,0,3.632.68132c2.666-.09174,4.62434-1.65421,6.67229-4.52094C217.70387,299.92384,215.68927,281.29585,211.54749,273.186Zm-.80968,34.1518a8.17254,8.17254,0,0,1-10.37026,2.59652c-.03683-.03954-.07573-.07915-.11185-.11321l-1.74723-1.56319c1.77019,1.62157,5.06047,9.72926,3.21811,19.67661-2.06808,11.17169-7.26394,16.36685-17.10157,16.73428-7.31053.27357-17.56132-5.11465-20.78085-17.65439-2.62019-10.205,3.35563-17.74465,2.80423-17.74465l-1.00353.86942a13.29552,13.29552,0,0,1-13.01818-3.53683c-6.28616-6.73971-7.63131-19.35511-4.59725-29.97469,2.359-8.25844,8.04589-13.83277,15.08-14.89532,6.99316-1.05694,12.47375.85071,16.64191,4.50494,8.01674,7.02992,7.082,21.10582,7.0792,21.2405a25.73528,25.73528,0,0,0-1.4472-15.49735,23.41224,23.41224,0,0,0-1.2584-2.41468c3.714-5.02229,8.5446-7.21531,12.821-6.91465,6.314.44374,10.78976,6.42859,13.42381,11.58557C214.93925,283.18679,215.77816,300.844,210.73781,307.33783Z"/><path class="f84c6530-2de4-4b4d-bc3c-37df7b5b5b33" d="M176.25754,224.3097l-.32434-.82433c-.14863-.02218-15.04181-2.21663-31.3948,11.92584-4.72852,4.08965-9.20779,14.82727-9.36054,17.594a4.2082,4.2082,0,0,0-1.07848,1.05c-.9896,1.37431-1.16944,2.73824-.62088,3.56186l.989-.29789a1.85711,1.85711,0,0,1,.091-1.84728c1.65555-3.62365,7.14518-2.407,7.31052-2.3361a9.23807,9.23807,0,0,0-5.23967-.74866c.66667-3.20978,4.69517-12.6814,9.10148-16.49186,12.22308-10.57094,23.34542-11.79108,28.09413-11.74877,3.62429,12.71063-11.14182,19.887-14.278,21.25373-.00135-.0076-.00064-.01457-.00135-.0236a7.893,7.893,0,0,0-2.33753-5.07925,7.5961,7.5961,0,0,0-4.69587-2.16109c2.88124.65487,5.96465,4.034,6.13753,7.10352.10695,1.91049-.08889,2.75281-.75905,3.1723a2.04054,2.04054,0,0,1-1.84863-.16249l-.08263-.49309c-.68332-.02709-3.84588,1.56389-5.96466,6.37853-1.02152,2.3223-1.70278,3.02091-2.03821,3.23893-1.30483-2.70907-5.23477-3.83264-5.23477-3.83264a9.79557,9.79557,0,0,1,4.389,3.916,2.6,2.6,0,0,1,.41316,1.88475,3.726,3.726,0,0,1-2.79029,2.54375l.45761.89729a4.35575,4.35575,0,0,0,3.114-2.9355,2.335,2.335,0,0,0,.05966-1.28678c.33473-.15005.97715-.82852,2.3216-3.88414,1.5257-3.46805,3.51805-5.20005,4.6424-5.8188l-.05831.07019a3.94854,3.94854,0,0,0,2.04582.63681,1.89124,1.89124,0,0,0,.95347-.257,3.07136,3.07136,0,0,0,1.26743-2.50976c3.28338-1.33953,19.56205-8.7334,15.10574-22.6301A14.66171,14.66171,0,0,1,176.25754,224.3097Z"/><path class="f84c6530-2de4-4b4d-bc3c-37df7b5b5b33" d="M155.06354,248.68781c.20694-.55211.85413-4.41534-3.90077-5.05634,0,0,5.21051-.94373,5.073,4.88339Z"/><path class="f84c6530-2de4-4b4d-bc3c-37df7b5b5b33" d="M217.69484,251.78851s-1.24723.39865-1.94591,2.56529c-.92012,2.85074-.77917,7.35426,1.37922,10.09043a3.12991,3.12991,0,0,0,2.87228,1.33477c-.7577-.10631-1.55216-1.07293-2.09169-1.88546-1.9528-2.9424-1.83753-6.78551-1.28755-9.56264A6.9258,6.9258,0,0,1,217.69484,251.78851Z"/><path class="f84c6530-2de4-4b4d-bc3c-37df7b5b5b33" d="M221.26573,265.89285a2.8269,2.8269,0,0,1-3.68687,1.32781,7.45465,7.45465,0,0,1-4.63551-5.57924c-.92218-4.157.43336-8.7543,1.7709-10.09249,2.18819-2.18541,4.78336-.21319,4.89585-.13753l.34518-.69028a4.4398,4.4398,0,0,0-5.92925.1403,6.70127,6.70127,0,0,0-1.43753,2.325,7.93623,7.93623,0,0,0-1.73613-.39652,2.48581,2.48581,0,0,0-1.28128.26183c.8827-1.41463-.16385-2.93963-.68468-4.1577-1.1028-2.58613-.98056-6.81324-.98618-6.86814L207.335,243.826a13.48728,13.48728,0,0,0,.84589,5.75558c.59925,1.46392,1.14027,2.99382.4347,4.10559-.07225.066-.14443.13055-.21113.20281a5.16242,5.16242,0,0,0-.34511.41942v-.00207c-.11186.059-3.55076.89722-4.72788,5.648,0,0,1.37019-3.26184,3.9369-4.21395a12.57,12.57,0,0,0-.31254,6.42717c.17295-5.20632,1.38057-6.95354,2.1382-7.68827.76531-.74305,1.116-.90768,1.48268-.86252a5.63674,5.63674,0,0,1,1.69169.43336,14.84818,14.84818,0,0,0-.51948,7.63479,8.67106,8.67106,0,0,0,3.69591,5.80146c-1.74587,1.91874-5.9188,2.33126-5.97156,2.33617l.62081.82774c.234-.02219,4.88894-.52637,6.53689-2.55143.12224.05071.23474.1125.36246.15972a12.50251,12.50251,0,0,0,1.85837.32228,4.12463,4.12463,0,0,0,3.1792-2.12226Z"/><path class="ee5db25d-2969-4710-9811-d797bf733ee5" d="M208.485,50.38611a43.28759,43.28759,0,0,1,2.71256-12.17792c1.54861-3.82783,2.95627-6.73694,4.19795-9.30223,2.46738-5.10072,4.02224-9.28068,4.07714-14.512.07431-7.09456-2.84171-12.73694-7.31607-14.14531-3.25835-1.02643-5.92441,1.45623-5.92441,1.45623,5.40565.51535,12.39738,5.47369,12.39738,13.24048,0,4.22576-1.36251,7.3709-3.21249,11.18485,1.03056-4.69033.88194-9.57445-2.38061-13.02309a6.14648,6.14648,0,0,0-5.0577-1.5639c12.873,7.35632.63823,27.75379.34511,28.32746-5.86254,11.4862-5.21671,25.21068-5.21806,25.3704l1.34793-.22777c.00206-.15417-.66881-13.67242,4.43754-23.85864a52.59962,52.59962,0,0,0-1.86535,12.13768c-.34162.75-.68538,1.54932-1.02778,2.40629-.59371,2.46253.08683,2.90279.32157,2.27572.16107-.43129.37362-.98476.63332-1.62157a68.41755,68.41755,0,0,0,.47361,8.52021l1.28819.184a71.6405,71.6405,0,0,1-.42425-11.75154c2.05691-4.35418,5.30559-9.79311,9.06677-10.86677C217.35734,42.43877,213.18919,41.88532,208.485,50.38611Z"/><path class="f84c6530-2de4-4b4d-bc3c-37df7b5b5b33" d="M205.85719,371.00452a2.32659,2.32659,0,0,0-.31531-4.26736c-4.02849-1.81947-11.85288-1.44869-18.21825,2.41667-2.89867,1.76116-4.18892,3.18752-3.94032,4.36187.26945,1.27845,2.24586,1.86526,2.57639,1.94583.99173,1.70491,2.09588,3.48406,3.35421,5.34172l1.01114-.5514c-1.141-1.89307-2.43338-4.02224-3.34034-5.71669l.03058-.02852c-.54934-.07218-1.92017-.57223-2.09034-1.37431-.10553-.50141.17366-1.75419,3.67507-3.74447,5.95491-3.38685,14.046-2.78965,16.43632-1.63963a1.48336,1.48336,0,0,1,.557,1.86392l-.0042-.02567a11.65163,11.65163,0,0,1-1.025,1.05558c.707,3.45974,1.37779,6.15489,1.39173,6.20772l1.19582.093C207.13777,376.89209,206.52038,374.39969,205.85719,371.00452Z"/><path class="f84c6530-2de4-4b4d-bc3c-37df7b5b5b33" d="M187.04722,373.91776s4.05978-5.7105,13.57656-5.38822c3.632-.01458,3.30976,1.19511,3.30976,1.19511-.12082-.009-10.298-1.425-16.88632,4.19311Z"/><path class="a2ad7e26-4b4c-42c4-81b9-6e693f507ba6" d="M218.64347,221.70971a2.30338,2.30338,0,0,1-1.39308-.36182,2.778,2.778,0,0,1-.743-3.55489c0,.01736.96526,4.99932,5.275,2.241a4.83074,4.83074,0,0,1-3.13889,1.67575Z"/><path class="a6e19c02-f853-4ffd-848f-12197c0bd955" d="M195.42094,381.74285a34.37813,34.37813,0,0,1,10.25918-1.07571c-10.89528.82711-13.52379,4.70563-13.562,4.73478C192.11814,385.40192,191.382,383.14981,195.42094,381.74285Z"/><path class="a6e19c02-f853-4ffd-848f-12197c0bd955" d="M155.52321,382.96577a18.65229,18.65229,0,0,0,8.32095,1.74658H163.89a17.5619,17.5619,0,0,0,8.73483-2.207,5.77449,5.77449,0,0,0,2.207-2.11466c-10.20571,6.98761-21.37732.91948-22.02111.184A6.6387,6.6387,0,0,0,155.52321,382.96577Z"/><path class="a6e19c02-f853-4ffd-848f-12197c0bd955" d="M177.75132,380.988c-.257-2.17226-3.964-2.5382-4.09178-2.55143l.06947.75763c.02781.0042,2.31256.298,2.88544,2.01951.49935,1.50068-1.07016,4.94591-4.03546,6.94593a10.12512,10.12512,0,0,0,1.99867-1.06952c.58817,1.06255,2.79236,5.464.68609,8.77372a3.16823,3.16823,0,0,1-2.44725.732,3.31474,3.31474,0,0,0,.45277-.36737c-13.44734,3.65495-31.99832,1.65563-33.10177-1.10415-.54443-1.359,1.14028-3.27435,4.65492-4.95565,9.82718-4.69794,22.38427,2.1244,22.51626,2.198,0,0-2.34449-2.414-8.83346-4.12229a29.38084,29.38084,0,0,0-5.76462-.70415,7.44541,7.44541,0,0,0,2.3868-1.80212,33.78352,33.78352,0,0,0,9.52161.83542c-10.06881-.89658-12.01053-2.90215-12.82718-4.06881a2.1878,2.1878,0,0,1-.34446-1.31045,2.51538,2.51538,0,0,1,1.60976-1.76877l-.27642-.62081a3.75342,3.75342,0,0,0-2.59658,2.4806,2.12378,2.12378,0,0,0,.298,1.42707,5.93393,5.93393,0,0,0,3.28893,2.58613c-.50838.67436-1.78335,2.16529-3.22365,2.29656l.01806.00484a19.03624,19.03624,0,0,0-7.482,2.04938c-4.78619,2.49652-5.32714,4.45075-4.9383,5.65006.84517,2.6049,6.58063,3.97572,15.294,3.97572a92.49832,92.49832,0,0,0,12.97239-.77149,16.14227,16.14227,0,0,0,5.13613-1.22085c.56186.10069,3.40562.46664,4.389-.89516,2.61671-2.70353.14165-9.13483-.29448-10.16332A5.98278,5.98278,0,0,0,177.75132,380.988Z"/><path class="ee5db25d-2969-4710-9811-d797bf733ee5" d="M241.44652,255.28508a.912.912,0,0,0-.96741-.36736c-3.00768.52431-8.36817-.15275-9.79667-.35a8.97752,8.97752,0,0,0-.24441-1.05275,39.12511,39.12511,0,0,1,5.77508-3.82646c.65693-.36253,1.13267-.625,1.35-.77085.28821-.19165,1.71529-1.198,1.49868-2.14311-.11669-.5125-.64726-.82639-1.6195-.96036-5.39242-.74519-10.22861,2.70068-11.2411,3.4847.64236-2.44164.84239-5.53408-1.36044-7.38128-.97573-.81879-2.21116-1.08688-2.8535-.64449a1.56077,1.56077,0,0,0-.3993,1.5181c.81942,2.46111-.45974,6.80356-2.39591,8.42229a5.86758,5.86758,0,0,0-2.10072,3.64868,3.69673,3.69673,0,0,1-.73956-.24449l-.20694.84446a1.45432,1.45432,0,0,0,.87226.18959,6.31807,6.31807,0,0,0,.20274,1.89726,8.76365,8.76365,0,0,1,2.6209-5.83829c1.86669-1.58679,3.48335-6.30834,2.58613-9.00078-.11669-.34859.03613-.45277.08612-.48819a2.18075,2.18075,0,0,1,2.15483.616c.78687.64655,2.29871,3.67856.13825,10.11405,0,0,.26453-.4938.59236-1.28549a1.57845,1.57845,0,0,1,1.53957,1.57641c-.10972,6.69732-5.57091,6.664-5.57091,6.664a6.58864,6.58864,0,0,0,.8153.05284,4.78548,4.78548,0,0,0,3.46671-1.39174,7.54976,7.54976,0,0,0,2.007-5.616,2.1707,2.1707,0,0,0-1.95145-2.0737c.057-.15694.11392-.31873.17088-.48818.90831-.73886,5.79449-4.47643,10.93482-3.76951.66532.09238,1.07919.2799,1.13338.516.08611.37576-.57082,1.07294-1.25491,1.5299-.19791.13128-.68816.40278-1.309.74583-2.37713,1.31393-4.51327,2.50421-5.19587,3.38336a4.39847,4.39847,0,0,0-1.50145-2.05692l.04444.08193c.92644,1.71949,2.88337,5.9931-.10553,12.33693,0,0,1.03888-.09166,1.607-1.90623a26.88423,26.88423,0,0,0,6.59592,2.93472c.59372.16043.83052.36324.85413.4889.016.08476-.07637.20971-.24029.32846-.99855.72506-4.03475,1.23543-7.98829-.85974l-.14371-.07772-.14031.0812c-.04445.02575-4.34238,2.27573-7.48617,1.35561a4.57708,4.57708,0,0,1-2.89589-2.80423,2.91522,2.91522,0,0,0,.22087,1.52016,5.085,5.085,0,0,1-.95766.341l.36736.66667a5.59908,5.59908,0,0,0,.9972-.30066,4.54428,4.54428,0,0,0,1.96255,1.41178,4.47793,4.47793,0,0,0,1.69865.22643,14.69437,14.69437,0,0,0,6.24036-1.83341c3.90562,2.4737,7.7084,1.78341,8.9695.87019a.90648.90648,0,0,0,.47019-.90419c-.07709-.41949-.50561-.73821-1.27433-.94586a31.08989,31.08989,0,0,1-7.08623-3.18546c.05625-.26667.107-.52779.15139-.78052a26.60314,26.60314,0,0,0,3.67784.32918c3.67087,0,5.93757-1.32646,6.90426-2.79314A1.94518,1.94518,0,0,0,241.44652,255.28508Zm-1.33129,1.94171c-.95211,1.49727-4.58963,2.632-9.45355,1.82431a15.41687,15.41687,0,0,0,.11805-3.76253,36.602,36.602,0,0,0,9.27229.42845c.27918-.03265.35556.073.38194.1125C240.57846,256.05039,240.52982,256.5754,240.11523,257.22679Z"/><line class="b1e6f5a3-b651-4449-8212-ae1fc163cb2e" x1="220.06984" y1="266.33034" x2="220.07609" y2="266.24984"/><path class="ee5db25d-2969-4710-9811-d797bf733ee5" d="M144.48286,260.74207a2.83188,2.83188,0,0,0,.23609-.53817l-.43612-.5854c-.0229.09231-.075.17153-.16875.39724a4.59716,4.59716,0,0,0-.45206-.67436s1.97641,4.64311.32221,8.36817a14.29664,14.29664,0,0,0-1.42573,7.72234,2.11984,2.11984,0,0,1-1.2889-.516c-2.56046-2.03963-1.3549-6.80776-1.17157-7.52507.24583-.19726.49792-.38129.75905-.55488,0,0-3.44723-.13888-5.925,7.50423-.40555,1.25-1.17435,2.88893-1.79793,2.93131-.33892.03264-.56669-.55489-.67087-.90141-1.53751-5.12369,2.19516-11.85636,2.23406-11.92584a9.51429,9.51429,0,0,0-2.5382,4.31949,19.07318,19.07318,0,0,0-.78543,5.16393c-.248.55695-.88819,1.51739-1.3202,1.59661-.12217.018-.82639.36175-1.19511-1.24105a11.80177,11.80177,0,0,1,2.80416-10.62092,4.4264,4.4264,0,0,0-.63886.43818c-2.86255.59443-5.48622,5.72786-6.50981,6.1369-.01323-.01252-.19655-.15417-.12849-.94167.61113-7.12719,6.18481-10.79949,7.9897-11.05712a23.49019,23.49019,0,0,0,5.3792-2.06872l-1.241-.06877a24.53362,24.53362,0,0,1-4.66181,1.43611c-1.98822.28331-8.24878,4.6035-8.24878,12.56264,0,.67919.06045,1.32851.49864,1.4792a.50894.50894,0,0,0,.17017.0278c.87638-.04864,3.62365-4.07926,5.12085-5.68966a9.65051,9.65051,0,0,0-.82569,1.5299,11.69624,11.69624,0,0,0-.30556,7.70982c.46393,1.3187,1.07848,1.68122,1.67639,1.68122a.86851.86851,0,0,0,.15765-.01457c.64584-.11805,1.10907-.92574,1.35767-1.58616a10.13454,10.13454,0,0,0,.34795,1.80419c.32221,1.07435.90974,1.35418,1.293,1.35418.02155,0,.0431,0,.06394-.00135,1.05835-.0736,1.89164-2.11949,2.36667-3.37647,1.38057-3.6479,2.50976-5.5889,3.75905-6.88058-.29511,1.10416-1.52428,5.566,1.79451,7.64177.41593.2597,2.47918.793,2.46872.4576-.04579-1.47017-.85-4.29865,1.08062-8.15981A8.69741,8.69741,0,0,0,144.48286,260.74207Z"/><path class="ad5b80e3-f582-43c1-b0fd-10d8f7ae95af" d="M215.05865,184.17518a1.834,1.834,0,1,1-1.793-1.44863A1.64728,1.64728,0,0,1,215.05865,184.17518Z"/><path class="ad5b80e3-f582-43c1-b0fd-10d8f7ae95af" d="M246.78127,182.79531a1.834,1.834,0,1,1-1.79309-1.44861A1.64822,1.64822,0,0,1,246.78127,182.79531Z"/><path class="ad5b80e3-f582-43c1-b0fd-10d8f7ae95af" d="M230.39778,198.84138c.08889.41039-.59307.90554-1.52364,1.10835-.93057.202-1.757.034-1.84585-.375-.08889-.41039.59307-.90483,1.52364-1.10835C229.48244,198.26423,230.30889,198.43234,230.39778,198.84138Z"/><path class="ee5db25d-2969-4710-9811-d797bf733ee5" d="M214.23162,334.64576c0-.0618-.15488-2.44448-.93477-7.5181,7.26466-6.77925,11.78347-20.9225,11.41611-29.46219a14.90771,14.90771,0,0,0-1.89727-5.9931c2.18342-13.95573-7.4834-22.39892-7.8945-22.26281l-.82782.41394c.09864.086,8.55847,6.14933,7.29872,19.41684a47.30311,47.30311,0,0,0-4.89727-6.28481c.07361.09586,6.4313,9.28971,6.77093,14.38354.49857,7.48339-3.42788,21.13845-10.36194,27.65935a33.01654,33.01654,0,0,0-3.55353-9.43137c3.20558,9.03137,3.29447,19.56276,3.29447,19.49329,0-.07986.00349.1632.00555.25138.03612,1.06462.86252,1.27646-4.90147,6.36957-14.43836,12.75777-30.48022,14.89461-46.61716,12.82582-15.412-1.9757-28.558-8.864-35.44562-14.20575-10.32994-8.01119-14.41475-17.989-17.40785-26.07733-.91109-2.46047-1.77083-4.78484-2.732-6.83557a54.53986,54.53986,0,0,0-6.37711-9.62927c-3.7306-4.85766-6.76815-8.41119-5.29663-11.84526,3.32782-7.76329,29.95179-19.46064,30.25039-19.58423l.62984-1.54242c-.9229.38407-17.16892,7.20428-26.62461,13.95295,1.39379-3.4889,1.45346-8.35978,1.53751-8.91673,1.01114-6.71262,1.28059-11.17589,5.21258-16.72731,10.55842-14.90436,33.43791-9.33416,33.70387-9.27023l.48264-.96535a43.59769,43.59769,0,0,0-6.6-.93889c4.53893-4.1,8.582-2.82016,8.78339-2.69379l.36808-.552c-.05419-.03335-4.54449-2.47783-11.24039,3.10347l.08747.02986c-8.20774-.31872-20.13635,1.07849-26.79335,10.4765-4.01257,5.664-4.74033,11.10158-5.57369,17.77871-.09586.766-.27015,8.86261-3.46948,11.39945l.06528.02013a11.70619,11.70619,0,0,0-2.91253,3.67784c-1.59867,3.73061,1.71458,8.04589,5.55007,13.0425a54.20069,54.20069,0,0,1,6.31532,9.52652c.9514,2.02989,1.80838,4.3438,2.71391,6.79311,3.01814,8.15427,6.773,18.30166,17.22731,26.40864,6.93824,5.38069,17.13357,12.05711,35.93586,15.19187a70.3832,70.3832,0,0,0,11.56956.99727,56.96088,56.96088,0,0,0,37.80461-13.71686c6.0015-5.21812,5.382-7.28826,5.34037-8.52369C214.23368,334.79786,214.23162,334.72007,214.23162,334.64576Z"/><path class="b6bbdd49-9b06-4b3d-8193-3042bf3e1822" d="M227.84494,73.84609a25.46138,25.46138,0,0,0,2.03408-2.75281c2.88338-4.95978,3.325-10.83761,1.59654-14.40921a6.35068,6.35068,0,0,0-6.85356-3.58055c-8.91815,1.35141-13.03006,11.04319-13.65087,12.64456a10.15575,10.15575,0,0,0-3.25977-1.12087,10.45066,10.45066,0,0,0-5.08337.47986c-.1861-1.78263-2.064-16.80852-11.82791-17.33561a8.11,8.11,0,0,0-7.3251,4.13688c-3.84453,6.09038-.91948,13.41058,1.43753,17.59189l-.14514-.09864c-.39866.559-10.25712,12.84944-4.41122,21.01139a8.13184,8.13184,0,0,0,6.8015,3.49586,9.79407,9.79407,0,0,0,1.08475-.06109c4.50487-.50418,9.22649-3.69035,12.21333-8.47513l-.0854.25765c.01664-.19307,1.625.5743,3.84588.5743a12.833,12.833,0,0,0,5.07853-.75834c.2986.29306.98469.65836,2.5.39027a6.68548,6.68548,0,0,0,1.51255-.843,19.61945,19.61945,0,0,0,9.3195,8.9786A12.91433,12.91433,0,0,0,227.9366,95.32a6.75068,6.75068,0,0,0,6.24733-3.50632C237.42841,85.66569,229.23247,75.56,227.84494,73.84609ZM209.87878,85.18376a5.03221,5.03221,0,0,0,2.90485-3.27784c-3.92224,4.28962-10.182,2.60838-11.57653,2.16458.24171-.4576.47226-.92431.68062-1.40553l.34439-1.86185c-2.63818,6.10006-7.89036,10.621-13.00986,11.19459a7.64149,7.64149,0,0,1-7.37993-3.21184c-4.52855-6.19663,2.14445-16.13147,3.67364-18.25787a26.36042,26.36042,0,0,0,1.591,2.3445c-3.49451-8.36682-4.73548-15.03357-2.42712-19.47316a6.54388,6.54388,0,0,1,6.51883-3.55979c8.43623.38962,9.90015,14.07035,10.05289,15.8148a13.02889,13.02889,0,0,0-1.86875,1.05345,33.81765,33.81765,0,0,0-3.30493-4.2931c.08476.116,7.74182,11.43417,4.17719,16.52593-1.848,2.6403-7.15984,3.99791-7.15984,3.99791a3.182,3.182,0,0,0,.37711.01949c1.67639,0,6.02922-.87987,7.88133-3.44381-1.71742,4.83966-8.52582,8.64386-8.52582,8.64386.3611-.16042,9.0293-3.50631,9.45085-8.84945l-.316-.843c1.51738-3.23126.09863-7.18971-1.73058-10.36955A9.98083,9.98083,0,0,1,207.5739,66.121a8.81921,8.81921,0,0,1,6.382,4.72923c1.74651,3.03335,1.76529,8.19245,0,11.49319A4.94347,4.94347,0,0,1,209.87878,85.18376Zm23.478,5.159c-.391,1.27155-4.0452,5.51609-10.84528,2.01048a19.24444,19.24444,0,0,1-8.37927-8.13827,9.27878,9.27878,0,0,0,1.11042-1.68828,14.59123,14.59123,0,0,0,1.10486-9.25009,25.55991,25.55991,0,0,1,4.89037-7.52087c-.17358.13049-4.091,3.091-5.42371,5.67153q-.18538-.49162-.41593-.959c1.359-2.59864,6.555-7.55081,6.60907-7.60215,0,0-5.04866,2.90485-7.27646,6.43684a11.35567,11.35567,0,0,0-2.95975-3.05831c.39723-1.01947,4.31671-10.39877,13.06263-11.7238a4.7871,4.7871,0,0,1,5.67232,3.18062c2.391,6.25146-1.28748,14.15988-5.97647,18.94046a8.68869,8.68869,0,0,0,2.87364-2.29862C228.49632,75.80309,235.0527,84.83026,233.35682,90.34279Z"/><path class="a6e19c02-f853-4ffd-848f-12197c0bd955" d="M217.51841,400a89.59241,89.59241,0,0,1-12.52794-.97914,32.71,32.71,0,0,1-10.264-3.54657c-.13049-.06876-.23119-.123-.30138-.159a6.95541,6.95541,0,0,0-1.02358-.27507c-1.64383-.375-4.08759-.39858-4.28549-2.52916a10.39808,10.39808,0,0,1,.58681-3.17089c.37775-1.33128.84724-2.98819.32363-3.21184a2.62147,2.62147,0,0,0-1.44521-.08263,3.44336,3.44336,0,0,1-2.6465-.49444.97766.97766,0,0,1-.46742-.83472c-.01457-2.25766,4.05772-4.0223,4.4445-4.27994l1.79238.13817c-2.20625.873-4.5757,2.9931-4.575,3.89174a.37253.37253,0,0,0,.20829.35,3.855,3.855,0,0,0,2.25211.17152,2.98227,2.98227,0,0,1,1.70072.09166c.99236.42568-.12082,2.65909-.62707,4.448a8.71465,8.71465,0,0,0-.5674,2.72366c.1174,1.1722,2.28824,1.44648,3.67926,1.76386a6.35147,6.35147,0,0,1,1.15344.32363c.07431.03612.17991.09237.31531.16526a30.562,30.562,0,0,0,9.88556,3.53967c5.56252.92012,17.67658,1.95345,19.86064-.2299.69655-.69583.95347-1.34516.76737-1.92849-.29931-.93192-1.68755-1.3229-2.26534-1.62569-2.96252-1.548-11.79876-8.93344-12.38692-10.69666-.234-.7028-1.26949-.96876-1.79238-1.05836-.48754-.08335-1.15493-.19656-1.15493-1.05417a3.5187,3.5187,0,0,1,1.73613-2.78126.91749.91749,0,0,0-.34653-.35492c-.67912-.47083-6.90142-3.21113-19.91135,3.22578l-.64442-.64448c13.471-7.58552,21.48357-4.15216,22.11419-2.94169a.92477.92477,0,0,1-.19378.96805,2.94479,2.94479,0,0,0-1.53822,2.34242c0,.33473.118.38678.66944.48122a1.83457,1.83457,0,0,1,1.70555,1.26458c.50838,1.52507,11.60576,10.64184,12.64464,10.839a3.73556,3.73556,0,0,1,2.72223,2.02022,2.47175,2.47175,0,0,1-.909,2.51808C224.99214,399.60284,221.45461,400,217.51841,400Z"/><path class="b45b0682-39be-427d-885d-3d8a5edf0ed3" d="M200.54669,189.88988c5.39661,3.80555,7.15322,10.60222,3.92474,15.18141-3.22891,4.57854-10.221,5.20489-15.6169,1.4-5.39655-3.80562-7.15323-10.60222-3.925-15.18076C188.15834,186.712,195.15043,186.085,200.54669,189.88988Z"/><path class="b45b0682-39be-427d-885d-3d8a5edf0ed3" d="M247.31461,197.98092a8.98862,8.98862,0,0,0-.00867,7.33065,46.94026,46.94026,0,0,0,6.39068-12.92652C251.391,192.592,248.57784,194.767,247.31461,197.98092Z"/></svg>